<svg width="154" height="57" viewBox="0 0 154 57" fill="none" xmlns="http://www.w3.org/2000/svg">
<g clip-path="url(#clip0_1075_1028)">
<path d="M15.4928 39.9856V40.2782H3.41211V39.9856C5.07974 39.7703 6.28506 39.4501 7.02256 39.025C7.76006 38.5944 8.12881 37.943 8.12881 37.0707V24.6384C8.12881 24.285 8.05726 24.0421 7.90866 23.8931C7.76556 23.7495 7.53441 23.6723 7.2262 23.6723C6.74187 23.6723 6.16398 23.8048 5.49252 24.0642C4.82107 24.3237 4.22666 24.5942 3.70381 24.8647L3.52769 24.5721L11.1504 19.841H11.4421V37.0597C11.4421 37.954 11.7448 38.6109 12.3447 39.0305C12.9446 39.4501 13.9958 39.7647 15.4873 39.9801" fill="black"/>
<path d="M16.7585 35.1385C16.0485 33.4271 15.6963 31.4894 15.6963 29.3309C15.6963 27.1723 16.054 25.3836 16.775 23.9152C17.4905 22.4467 18.4867 21.3481 19.758 20.6139C21.0294 19.8851 22.4989 19.5208 24.1665 19.5208C25.8342 19.5208 27.2927 19.9956 28.5915 20.9506C29.8904 21.9057 30.8976 23.2251 31.6186 24.9199C32.3341 26.6147 32.6973 28.5304 32.6973 30.6724C32.6973 32.8143 32.3286 34.6582 31.5911 36.1433C30.8536 37.6338 29.8464 38.7434 28.564 39.4722C27.2817 40.2009 25.8177 40.5652 24.172 40.5652C22.5264 40.5652 21.0514 40.0905 19.7635 39.1354C18.4757 38.1803 17.474 36.8499 16.764 35.1385M29.8464 33.6203C29.8464 31.6937 29.5327 29.7228 28.8997 27.7078C28.2668 25.6928 27.3972 24.0201 26.28 22.6896C25.1627 21.3591 23.9189 20.6911 22.5429 20.6911C21.2606 20.6911 20.2809 21.188 19.6039 22.1817C18.927 23.1754 18.5857 24.5942 18.5857 26.4436C18.5857 28.293 18.8995 30.3411 19.5324 32.3561C20.1598 34.3711 21.0349 36.0439 22.1522 37.3743C23.2694 38.7048 24.5133 39.3728 25.8892 39.3728C27.1496 39.3728 28.1237 38.8759 28.8117 37.8822C29.4997 36.8885 29.8464 35.4697 29.8464 33.6203Z" fill="black"/>
<path d="M35.4987 35.1385C34.7888 33.4271 34.4365 31.4894 34.4365 29.3309C34.4365 27.1723 34.7943 25.3836 35.5153 23.9152C36.2307 22.4467 37.2269 21.3481 38.4983 20.6139C39.7696 19.8851 41.2391 19.5208 42.9068 19.5208C44.5744 19.5208 46.0329 19.9956 47.3318 20.9506C48.6307 21.9057 49.6378 23.2251 50.3588 24.9199C51.0743 26.6147 51.4376 28.5304 51.4376 30.6724C51.4376 32.8143 51.0688 34.6582 50.3313 36.1433C49.5938 37.6338 48.5866 38.7434 47.3043 39.4722C46.0219 40.2009 44.5579 40.5652 42.9123 40.5652C41.2667 40.5652 39.7917 40.0905 38.5038 39.1354C37.2159 38.1803 36.2142 36.8499 35.5042 35.1385M48.5866 33.6203C48.5866 31.6937 48.2729 29.7228 47.64 27.7078C47.0071 25.6928 46.1375 24.0201 45.0202 22.6896C43.9029 21.3591 42.6591 20.6911 41.2832 20.6911C40.0008 20.6911 39.0211 21.188 38.3442 22.1817C37.6672 23.1754 37.326 24.5942 37.326 26.4436C37.326 28.293 37.6397 30.3411 38.2726 32.3561C38.9001 34.3711 39.7751 36.0439 40.8924 37.3743C42.0097 38.7048 43.2535 39.3728 44.6294 39.3728C45.8898 39.3728 46.864 38.8759 47.5519 37.8822C48.2399 36.8885 48.5866 35.4697 48.5866 33.6203Z" fill="black"/>
<path d="M12.8402 53.511C13.0108 53.7594 13.2475 53.9085 13.5502 53.9747V54.0796H9.84068V53.9747C10.1269 53.9029 10.358 53.7484 10.5286 53.5055C10.7048 53.2626 10.7873 52.9976 10.7873 52.6995V48.6584C10.7873 48.2388 10.6607 47.9186 10.4131 47.6978C10.1654 47.477 9.82417 47.3666 9.39487 47.3666C9.08667 47.3666 8.78946 47.4273 8.50327 47.5488C8.21708 47.6702 7.90887 47.8413 7.58415 48.0566C7.62267 48.2996 7.64469 48.5093 7.64469 48.6694V52.6995C7.64469 52.9976 7.72724 53.2681 7.89786 53.5165C8.06847 53.7649 8.30514 53.914 8.60784 53.9802V54.0851H4.91483V53.9802C5.20103 53.9085 5.43219 53.7539 5.6028 53.511C5.77892 53.2681 5.86148 53.0031 5.86148 52.705V48.6639C5.86148 48.2443 5.7404 47.9242 5.50373 47.7033C5.26157 47.4825 4.93135 47.3721 4.51306 47.3721C3.9792 47.3721 3.3848 47.615 2.71884 48.0953V52.7105C2.71884 53.0086 2.8014 53.2791 2.97202 53.5275C3.14263 53.776 3.37929 53.925 3.682 53.9913V54.0962H0V53.9913C0.286194 53.9195 0.517351 53.7649 0.687967 53.522C0.864086 53.2791 0.946642 53.0141 0.946642 52.716V48.1174C0.946642 47.88 0.847575 47.6757 0.649441 47.4935C0.451306 47.3169 0.231157 47.223 0 47.223V47.1181L2.61978 46.7041H2.72435V47.8082C3.03256 47.4273 3.40681 47.1237 3.85812 46.8918C4.30942 46.6599 4.78275 46.544 5.28359 46.544C5.81194 46.544 6.27976 46.6489 6.67603 46.8642C7.0778 47.0795 7.35299 47.4052 7.50159 47.8469C7.8098 47.4549 8.18956 47.1402 8.65187 46.9028C9.11418 46.6599 9.61502 46.544 10.1544 46.544C10.8479 46.544 11.4258 46.7207 11.8881 47.0685C12.3504 47.4163 12.576 47.9573 12.576 48.686V52.716C12.576 53.0141 12.6586 53.2846 12.8292 53.5331" fill="black"/>
<path d="M17.4743 53.9747V54.0796H13.7812V53.9747C14.0674 53.9029 14.2986 53.7484 14.4692 53.5055C14.6453 53.2626 14.7279 52.9976 14.7279 52.6995V48.1174C14.7279 47.88 14.6288 47.6757 14.4307 47.4935C14.2326 47.3169 14.0124 47.223 13.7812 47.223V47.1181L16.401 46.7041H16.5056V52.6995C16.5056 52.9976 16.5882 53.2681 16.7588 53.5165C16.9294 53.7649 17.166 53.9195 17.4743 53.9802M14.5463 44.7222C14.5463 44.4738 14.6453 44.2751 14.838 44.1205C15.0306 43.9659 15.2948 43.8886 15.6195 43.8886C15.9442 43.8886 16.2194 43.9659 16.4065 44.1205C16.5937 44.2751 16.6872 44.4738 16.6872 44.7222C16.6872 45.0314 16.5937 45.2688 16.4065 45.4399C16.2194 45.611 15.9552 45.6938 15.6195 45.6938C15.2838 45.6938 15.0196 45.611 14.8325 45.4399C14.6453 45.2688 14.5518 45.0314 14.5518 44.7222" fill="black"/>
<path d="M21.4147 53.9747V54.0851H17.7217V53.9747C18.0079 53.9029 18.239 53.7484 18.4096 53.5055C18.5858 53.2626 18.6683 52.9976 18.6683 52.6995V44.4131C18.6683 44.1757 18.5693 43.9714 18.3711 43.7892C18.173 43.6071 17.9528 43.5187 17.7217 43.5187V43.4138L20.3415 42.9998H20.4515V52.6995C20.4515 52.9976 20.5341 53.2681 20.7047 53.5165C20.8753 53.7649 21.112 53.9195 21.4202 53.9802" fill="black"/>
<path d="M25.3502 53.9747V54.0851H21.6572V53.9747C21.9434 53.9029 22.1746 53.7484 22.3452 53.5055C22.5213 53.2626 22.6039 52.9976 22.6039 52.6995V44.4131C22.6039 44.1757 22.5048 43.9714 22.3067 43.7892C22.1085 43.6071 21.8884 43.5187 21.6572 43.5187V43.4138L24.277 42.9998H24.3871V52.6995C24.3871 52.9976 24.4696 53.2681 24.6403 53.5165C24.8109 53.7649 25.0475 53.9195 25.3557 53.9802" fill="black"/>
<path d="M29.2907 53.9747V54.0796H25.5977V53.9747C25.8839 53.9029 26.115 53.7484 26.2856 53.5055C26.4617 53.2626 26.5443 52.9976 26.5443 52.6995V48.1174C26.5443 47.88 26.4452 47.6757 26.2471 47.4935C26.049 47.3169 25.8288 47.223 25.5977 47.223V47.1181L28.2174 46.7041H28.322V52.6995C28.322 52.9976 28.4046 53.2681 28.5752 53.5165C28.7458 53.7649 28.9825 53.9195 29.2907 53.9802M26.3627 44.7222C26.3627 44.4738 26.4617 44.2751 26.6544 44.1205C26.847 43.9659 27.1112 43.8886 27.4359 43.8886C27.7606 43.8886 28.0358 43.9659 28.2229 44.1205C28.4101 44.2751 28.5036 44.4738 28.5036 44.7222C28.5036 45.0314 28.4101 45.2688 28.2229 45.4399C28.0358 45.611 27.7716 45.6938 27.4359 45.6938C27.1002 45.6938 26.836 45.611 26.6489 45.4399C26.4617 45.2688 26.3682 45.0314 26.3682 44.7222" fill="black"/>
<path d="M30.2104 52.313C29.8747 51.7168 29.7041 51.0543 29.7041 50.3146C29.7041 49.619 29.8692 48.9841 30.1939 48.41C30.5187 47.8358 30.9975 47.3776 31.6194 47.0409C32.2413 46.7041 32.9733 46.533 33.8099 46.533C34.6465 46.533 35.406 46.7096 36.0554 47.0574C36.7049 47.4052 37.2002 47.88 37.5469 48.4707C37.8937 49.0669 38.0698 49.7184 38.0698 50.4416C38.0698 51.1648 37.8992 51.7775 37.5634 52.3627C37.2277 52.9479 36.7434 53.4061 36.1215 53.7484C35.4995 54.0851 34.7785 54.2563 33.9585 54.2563C33.0779 54.2563 32.3184 54.0796 31.6744 53.7318C31.0305 53.384 30.5407 52.9093 30.2049 52.3186M36.8424 51.6561C36.8424 51.0102 36.6223 50.3311 36.182 49.619C35.7417 48.9068 35.1968 48.3106 34.5474 47.8248C33.8979 47.3445 33.2815 47.1016 32.6981 47.1016C32.1588 47.1126 31.724 47.2948 31.4048 47.6481C31.0855 48.0015 30.9204 48.4873 30.9204 49.1001C30.9204 49.7128 31.1406 50.4084 31.5864 51.1206C32.0322 51.8327 32.5771 52.429 33.232 52.9148C33.8869 53.3951 34.4979 53.638 35.0702 53.638C35.5986 53.638 36.0279 53.4613 36.3526 53.1025C36.6773 52.7436 36.8369 52.2634 36.8369 51.6561" fill="black"/>
<path d="M46.8205 53.511C46.9911 53.7594 47.2278 53.9085 47.5305 53.9747V54.0796H43.8375V53.9747C44.1237 53.9029 44.3548 53.7484 44.5254 53.5055C44.7015 53.2626 44.7841 52.9976 44.7841 52.6995V48.6584C44.7841 48.2388 44.641 47.9186 44.3493 47.6978C44.0576 47.477 43.6613 47.3666 43.1605 47.3666C42.5551 47.3666 41.8836 47.615 41.1351 48.1063V52.705C41.1351 53.0031 41.2177 53.2736 41.3883 53.522C41.5589 53.7704 41.7956 53.9195 42.0983 53.9858V54.0906H38.4053V53.9858C38.6915 53.914 38.9226 53.7594 39.0932 53.5165C39.2694 53.2736 39.3519 53.0086 39.3519 52.7105V48.0677C39.3519 47.8303 39.2528 47.6205 39.0547 47.4383C38.8566 47.2562 38.6364 47.1623 38.4053 47.1623V47.0574L41.0251 46.6434H41.1351V47.8413C41.4433 47.4715 41.8451 47.1623 42.3515 46.9194C42.8578 46.6765 43.3806 46.5495 43.9255 46.5495C44.6795 46.5495 45.3125 46.7262 45.8133 47.074C46.3141 47.4218 46.5618 47.9628 46.5618 48.6915V52.7215C46.5618 53.0197 46.6444 53.2902 46.815 53.5386" fill="black"/>
<path d="M48.0969 53.5883L48.2675 51.2199H48.4051C48.5702 51.7444 48.8233 52.2081 49.1701 52.6166C49.5168 53.0252 49.9021 53.3398 50.3259 53.5607C50.7497 53.7815 51.1679 53.8974 51.5752 53.9085C52.1146 53.9085 52.5384 53.8036 52.8411 53.5938C53.1438 53.384 53.2924 53.0859 53.2924 52.6939C53.2924 52.451 53.2153 52.2357 53.0557 52.048C52.8961 51.8658 52.6539 51.6837 52.3182 51.5015C51.988 51.3193 51.4927 51.093 50.8377 50.8169C50.2158 50.552 49.726 50.3201 49.3737 50.1269C49.0215 49.9336 48.7353 49.7018 48.5206 49.4368C48.306 49.1718 48.1959 48.8461 48.1959 48.4707C48.1959 47.8745 48.4711 47.4052 49.0215 47.0629C49.5719 46.7207 50.3369 46.5495 51.3055 46.5495C51.9715 46.5495 52.5879 46.6158 53.1658 46.7483C53.7437 46.8808 54.1785 47.0188 54.4757 47.1623L54.1675 49.2546H54.0464C53.8317 48.5756 53.4355 48.018 52.8521 47.5708C52.2687 47.1237 51.6192 46.9028 50.9038 46.9028C50.4359 46.9028 50.0672 46.9857 49.7975 47.1513C49.5333 47.3169 49.3957 47.5322 49.3957 47.7972C49.3957 47.9794 49.4673 48.145 49.6049 48.283C49.7425 48.421 49.9406 48.548 50.1938 48.6694C50.4469 48.7854 50.8597 48.9565 51.4211 49.1718C51.5257 49.2105 51.6192 49.2491 51.7018 49.2877C51.7844 49.3264 51.8724 49.3595 51.955 49.3871C52.9126 49.757 53.6336 50.1379 54.1069 50.5299C54.5803 50.9218 54.8169 51.4297 54.8169 52.0425C54.8169 52.6995 54.5582 53.2294 54.0354 53.6435C53.5125 54.052 52.676 54.2618 51.5202 54.2618C50.6836 54.2618 49.9406 54.1845 49.2967 54.041C48.6527 53.8919 48.2455 53.7484 48.0693 53.6048" fill="black"/>
<path d="M46.8371 6.44949L13.9365 10.1337L14.8604 18.4348L47.761 14.7506L46.8371 6.44949Z" fill="black"/>
<path d="M20.6496 15.7116C20.2919 15.7502 19.9837 15.7116 19.7195 15.5956C19.4553 15.4797 19.2407 15.2975 19.0866 15.0436C18.927 14.7896 18.8279 14.4805 18.7894 14.1161C18.7453 13.7463 18.7784 13.4205 18.8884 13.1445C18.993 12.8685 19.1636 12.6421 19.4003 12.4765C19.6314 12.3109 19.9176 12.206 20.2534 12.1674C20.5891 12.1287 20.8918 12.1674 21.156 12.2778C21.4202 12.3882 21.6348 12.5704 21.7999 12.8133C21.965 13.0617 22.0696 13.3709 22.1081 13.7407C22.1687 14.2873 22.0751 14.74 21.8274 15.0933C21.5798 15.4466 21.189 15.6509 20.6551 15.7116M20.3139 12.6808C19.9562 12.7194 19.703 12.863 19.5599 13.0948C19.4168 13.3322 19.3728 13.6469 19.4168 14.0388C19.4443 14.3038 19.5049 14.5302 19.5984 14.7068C19.692 14.889 19.8186 15.0215 19.9782 15.1098C20.1433 15.1982 20.3469 15.2258 20.5891 15.1982C20.9523 15.154 21.2055 15.0105 21.3431 14.7676C21.4807 14.5191 21.5247 14.1989 21.4807 13.8015C21.4477 13.5365 21.3871 13.3156 21.2936 13.139C21.2 12.9623 21.0679 12.8354 20.9083 12.7581C20.7487 12.6808 20.5451 12.6532 20.3139 12.6808Z" fill="white"/>
<path d="M23.3247 10.4173L23.8751 15.2534L23.2476 15.3251L22.6973 10.4891L23.3247 10.4173ZM23.6439 14.4529L23.6054 14.1161L23.743 14.0996L23.8971 14.4253L23.6439 14.4529ZM23.5283 13.1224L23.4513 12.6918L23.7044 12.6642L23.6384 13.1114L23.5283 13.1224ZM26.1261 13.3101C26.1921 13.9008 26.1371 14.3535 25.9555 14.6682C25.7739 14.9829 25.5042 15.1595 25.1464 15.1982C24.9538 15.2202 24.7777 15.1982 24.6126 15.1374C24.4475 15.0712 24.3044 14.9773 24.1778 14.8559C24.0512 14.7344 23.9411 14.5909 23.8586 14.4308C23.776 14.2707 23.7155 14.0996 23.6879 13.9229L23.7155 13.8235C23.7375 14.0057 23.7925 14.1658 23.8916 14.3038C23.9906 14.4418 24.1117 14.5467 24.2603 14.6185C24.4089 14.6903 24.5795 14.7124 24.7667 14.6903C25.0749 14.6571 25.2895 14.5357 25.4106 14.3259C25.5317 14.1217 25.5702 13.8015 25.5207 13.3653C25.4711 12.9292 25.3611 12.6311 25.196 12.46C25.0308 12.2888 24.7942 12.2226 24.497 12.2557C24.3044 12.2778 24.1447 12.3385 24.0127 12.4434C23.8806 12.5483 23.787 12.6753 23.7265 12.8298C23.6659 12.9844 23.6494 13.1611 23.6714 13.3543L23.6054 13.1003C23.6219 12.8685 23.6714 12.6477 23.754 12.4379C23.8365 12.2281 23.9521 12.0514 24.1117 11.9079C24.2658 11.7644 24.4695 11.6816 24.7226 11.654C25.1079 11.6098 25.4216 11.7257 25.6693 11.9962C25.9169 12.2667 26.0766 12.7029 26.1426 13.3046" fill="white"/>
<path d="M28.0082 14.8448C28.0357 15.0933 28.0247 15.3141 27.9697 15.5073C27.9146 15.7005 27.8156 15.8496 27.6725 15.9655C27.5294 16.0815 27.3257 16.1532 27.0726 16.1808C26.9955 16.1919 26.924 16.1919 26.8524 16.1974C26.7809 16.1974 26.7203 16.1974 26.6598 16.1974L26.5938 15.6343C26.6653 15.6398 26.7313 15.6453 26.7919 15.6453C26.8579 15.6453 26.9185 15.6453 26.979 15.6343C27.1606 15.6122 27.2817 15.546 27.3368 15.43C27.3918 15.3141 27.4083 15.165 27.3863 14.9773L26.99 11.4939L27.6174 11.4221L28.0082 14.8448ZM27.5734 10.6216L26.8579 10.7044L26.7919 10.1137L27.5019 10.0309L27.5679 10.6216H27.5734Z" fill="white"/>
<path d="M30.6673 14.5633C30.3205 14.6019 30.0178 14.5688 29.7537 14.4639C29.4895 14.359 29.2803 14.1824 29.1207 13.9339C28.9611 13.6855 28.862 13.3764 28.818 13.0065C28.774 12.6256 28.8015 12.2943 28.9061 12.0128C29.0051 11.7312 29.1758 11.5049 29.4014 11.3337C29.6271 11.1626 29.9133 11.0577 30.2545 11.0191C30.5847 10.9804 30.8654 11.0136 31.1021 11.1129C31.3332 11.2123 31.5203 11.3724 31.6524 11.5932C31.7845 11.814 31.8726 12.0735 31.9056 12.3827C31.9111 12.4379 31.9166 12.4986 31.9221 12.5704C31.9276 12.6421 31.9276 12.7139 31.9276 12.7912L29.2583 13.0948L29.2088 12.6808L31.4763 12.4213L31.3332 12.5924C31.3002 12.2005 31.2011 11.9079 31.036 11.7147C30.8709 11.5214 30.6232 11.4442 30.282 11.4828C29.9518 11.5214 29.7151 11.6595 29.572 11.8913C29.4289 12.1287 29.3794 12.4655 29.4344 12.9071C29.4785 13.3156 29.5995 13.6193 29.7922 13.818C29.9848 14.0167 30.26 14.0996 30.6122 14.0554C30.8159 14.0333 30.97 13.9836 31.0801 13.9119C31.1901 13.8401 31.2727 13.7518 31.3222 13.6413C31.3773 13.5309 31.4103 13.415 31.4323 13.2936L31.9827 13.3819C31.9496 13.5917 31.8891 13.7738 31.7955 13.9395C31.702 14.0996 31.5644 14.2321 31.3828 14.3369C31.2011 14.4418 30.959 14.5081 30.6618 14.5412" fill="white"/>
<path d="M35.114 11.7644C35.0645 11.6208 34.9984 11.4939 34.9269 11.389C34.8498 11.2841 34.7508 11.2123 34.6297 11.1626C34.5086 11.1185 34.3435 11.1019 34.1454 11.1295C33.8261 11.1626 33.595 11.2951 33.4519 11.5215C33.3088 11.7478 33.2593 12.0625 33.3033 12.4765C33.3308 12.7194 33.3913 12.9347 33.4794 13.1114C33.573 13.288 33.6941 13.4205 33.8537 13.5033C34.0133 13.5862 34.2114 13.6193 34.4426 13.5917C34.6462 13.5696 34.8003 13.5199 34.9049 13.4371C35.0149 13.3543 35.092 13.2549 35.1415 13.1335C35.1911 13.012 35.2241 12.885 35.2461 12.7525L35.8295 12.863C35.7965 13.2218 35.6754 13.5144 35.4663 13.7297C35.2571 13.9505 34.9379 14.083 34.5141 14.1327C34.1564 14.1713 33.8482 14.1382 33.5895 14.0278C33.3308 13.9174 33.1217 13.7407 32.9621 13.4923C32.8024 13.2439 32.7034 12.9402 32.6649 12.5704C32.6208 12.1894 32.6483 11.8582 32.7474 11.5822C32.8465 11.3006 33.0116 11.0798 33.2427 10.9031C33.4739 10.732 33.7546 10.6271 34.0903 10.5885C34.393 10.5554 34.6462 10.5719 34.8498 10.6382C35.0535 10.7044 35.2241 10.8203 35.3562 10.9749C35.4883 11.135 35.5873 11.3338 35.6589 11.5711L35.103 11.7644H35.114Z" fill="white"/>
<path d="M36.1924 10.4339L38.4159 10.1799L38.4709 10.6768L36.2474 10.9307L36.1924 10.4339ZM36.9959 12.7415L36.6162 9.41259L37.2326 9.34082L37.6013 12.6145C37.6234 12.8077 37.6784 12.9458 37.772 13.0341C37.8655 13.1224 38.0031 13.1555 38.1847 13.1335C38.2783 13.1224 38.3609 13.1059 38.4379 13.0838C38.515 13.0617 38.603 13.0341 38.6911 12.9954L38.8287 13.5199C38.7571 13.553 38.6801 13.5806 38.614 13.6082C38.5425 13.6303 38.4709 13.6579 38.3939 13.6745C38.3168 13.691 38.2233 13.7076 38.1187 13.7186C37.8875 13.7462 37.6894 13.7186 37.5298 13.6414C37.3702 13.5641 37.2436 13.4426 37.1555 13.288C37.0675 13.1335 37.0124 12.9513 36.9904 12.7415" fill="white"/>
<path d="M39.957 9.20833L39.236 9.29114L39.1699 8.70044L39.8909 8.61763L39.957 9.20833ZM40.3862 13.3709L39.7588 13.4426L39.3736 10.0695L40.001 9.99778L40.3862 13.3709Z" fill="white"/>
<path d="M40.8926 9.8984L43.2096 9.63341L43.2647 10.1303L40.9476 10.3953L40.8926 9.8984ZM42.1089 9.42363L42.5272 13.1279L41.8998 13.1997L41.476 9.4678C41.4485 9.22489 41.465 9.01511 41.531 8.83293C41.5916 8.65075 41.6961 8.50169 41.8502 8.38576C42.0043 8.26983 42.197 8.19806 42.4391 8.17046C42.5712 8.1539 42.6923 8.14838 42.7859 8.14838C42.8849 8.14838 42.9675 8.14838 43.0335 8.15942L43.0886 8.62867C43.0005 8.62867 42.9179 8.62315 42.8464 8.62867C42.7749 8.62867 42.6978 8.63419 42.6152 8.64523C42.4061 8.66731 42.263 8.7446 42.186 8.88261C42.1034 9.01511 42.0814 9.20281 42.1089 9.43467" fill="white"/>
<path d="M154 51.9542L64.218 57L61.7578 5.04581L151.54 0L154 51.9542Z" fill="#F8E256"/>
<path d="M90.8944 23.1754C90.8229 23.7937 90.7458 24.4617 90.6633 25.1904C90.5807 25.9136 90.4927 26.6534 90.3991 27.3986C90.3055 28.1439 90.2175 28.8837 90.1349 29.6234C90.0524 30.3577 89.9478 31.0754 89.8212 31.7709L88.781 39.7371L82.9966 40.0132L77.8506 22.4632L82.4242 22.2479L84.378 29.778C84.7468 31.3403 85.088 32.8419 85.3907 34.2828C85.6934 35.7237 85.9631 37.2474 86.1998 38.8594L85.0054 36.0991L86.3318 36.0328L85.6659 38.8815C85.8255 37.2142 86.0016 35.6298 86.1943 34.1227C86.3869 32.6211 86.6015 31.1306 86.8272 29.6566L88.1481 21.9719L93.5142 21.718L95.468 29.248C95.8313 30.7165 96.1615 32.1795 96.4587 33.6479C96.7559 35.1164 97.0586 36.6732 97.3778 38.3184L96.4477 35.547L97.8071 35.4808L96.822 38.346C96.921 36.7174 97.0696 35.1771 97.2678 33.7142C97.4659 32.2512 97.675 30.7276 97.8952 29.1321L99.0124 21.4585L103.377 21.2487L99.849 39.2127L94.0096 39.4887L92.1328 31.6605C91.9842 30.976 91.8246 30.2693 91.665 29.5462C91.4999 28.823 91.3457 28.0998 91.1916 27.371C91.0375 26.6478 90.8944 25.9302 90.7513 25.2291C90.6082 24.5224 90.4817 23.8489 90.3716 23.203L91.8356 25.356L89.9753 25.4444L90.8999 23.1754H90.8944Z" fill="black"/>
<path d="M109.315 23.2472L105.154 23.4459L105.027 20.785L109.188 20.5862L109.315 23.2472ZM109.986 38.7269L105.946 38.9201L105.281 24.8923L109.32 24.6991L109.986 38.7269Z" fill="black"/>
<path d="M116.327 20.244L117.185 38.3846L113.146 38.5778L112.287 20.4372L116.327 20.244ZM115.991 31.2355L121.126 24.1415L125.788 23.9207V23.9814L119.046 32.6653L114.648 32.8751L114.511 29.9436L118.996 29.7283L126.712 37.8712V37.9319L121.935 38.1583L115.694 31.2465L115.991 31.2299V31.2355Z" fill="black"/>
<path d="M131.853 22.1707L127.692 22.3694L127.565 19.7085L131.726 19.5097L131.853 22.1707ZM132.524 37.6504L128.485 37.8436L127.819 23.8158L131.858 23.6226L132.524 37.6504Z" fill="black"/>
</g>
<defs>
<clipPath id="clip0_1075_1028">
<rect width="154" height="57" fill="white"/>
</clipPath>
</defs>
</svg>
