<svg viewBox="0 0 24 16" fill="none" xmlns="http://www.w3.org/2000/svg">
  <g clip-path="url(#clip0_505_5146)">
    <path d="M24 13.5385C24 14.1913 23.719 14.8174 23.219 15.279C22.7189 15.7407 22.0406 16 21.3333 16H16V0H21.3333C22.0406 0 22.7189 0.25934 23.219 0.720968C23.719 1.1826 24 1.8087 24 2.46154V13.5385Z" fill="#ED2939"/>
    <path d="M2.66667 0C1.95942 0 1.28115 0.25934 0.781049 0.720968C0.280952 1.1826 0 1.8087 0 2.46154L0 13.5385C0 14.1913 0.280952 14.8174 0.781049 15.279C1.28115 15.7407 1.95942 16 2.66667 16H8V0H2.66667Z" fill="#002495"/>
    <path d="M8 0H16V16H8V0Z" fill="#EEEEEE"/>
  </g>
  <defs>
    <clipPath id="clip0_505_5146">
      <rect width="24" height="16" rx="4" fill="white"/>
    </clipPath>
  </defs>
</svg>