<svg viewBox="0 0 24 16" fill="none" xmlns="http://www.w3.org/2000/svg">
  <g clip-path="url(#clip0_429_11173)">
    <path d="M1.24783 16H22.7522C23.4435 15.9625 24 15.4083 24 14.7375V1.2625C24 0.570833 23.413 0.00416667 22.6913 0H1.3087C0.586957 0.00416667 0 0.570833 0 1.2625V14.7333C0 15.4083 0.556522 15.9625 1.24783 16Z" fill="#FEFEFE"/>
    <path d="M10.3217 9.59583V16H13.6609V9.59583H24V6.39583H13.6609V0H10.3217V6.39583H0V9.59583H10.3217Z" fill="#C8102E"/>
    <path d="M14.7739 5.17917V0H22.7C23.2478 0.00833333 23.7174 0.3375 23.9087 0.8L14.7739 5.17917Z" fill="#012169"/>
    <path d="M14.7739 10.8208V16H22.7522C23.2783 15.9708 23.7217 15.6458 23.9087 15.2L14.7739 10.8208Z" fill="#012169"/>
    <path d="M9.20869 10.8208V16H1.24782C0.721736 15.9708 0.27391 15.6458 0.091301 15.1917L9.20869 10.8208Z" fill="#012169"/>
    <path d="M9.20869 5.17917V0H1.3C0.752171 0.00833333 0.278257 0.341667 0.091301 0.808333L9.20869 5.17917Z" fill="#012169"/>
    <path d="M0 5.33332H3.32609L0 3.73749V5.33332Z" fill="#012169"/>
    <path d="M24 5.33332H20.6565L24 3.72916V5.33332Z" fill="#012169"/>
    <path d="M24 10.6667H20.6565L24 12.2708V10.6667Z" fill="#012169"/>
    <path d="M0 10.6667H3.32609L0 12.2625V10.6667Z" fill="#012169"/>
    <path d="M24 1.35416L15.7174 5.33332H17.5696L24 2.24999V1.35416Z" fill="#C8102E"/>
    <path d="M8.26522 10.6667H6.41304L0 13.7417V14.6375L8.28261 10.6667H8.26522Z" fill="#C8102E"/>
    <path d="M4.57391 5.33751H6.42609L0 2.25418V3.14585L4.57391 5.33751Z" fill="#C8102E"/>
    <path d="M19.4043 10.6625H17.5522L24 13.7583V12.8667L19.4043 10.6625Z" fill="#C8102E"/>
  </g>
  <defs>
    <clipPath id="clip0_429_11173">
      <rect width="24" height="16" rx="4" fill="white"/>
    </clipPath>
  </defs>
</svg>